<svg width="200" height="14" viewBox="0 0 200 14" fill="none" xmlns="http://www.w3.org/2000/svg">
<rect x="10" y="6" width="34" height="2" rx="1" fill="#333A47"/>
<rect x="58" y="6" width="35" height="2" rx="1" fill="#333A47"/>
<rect x="106" y="6" width="35" height="2" rx="1" fill="#333A47"/>
<rect x="155" y="6" width="35" height="2" rx="1" fill="#333A47"/>
<rect x="49" y="2" width="5" height="10" rx="2.5" fill="#333A47"/>
<rect x="97" y="2" width="5" height="10" rx="2.5" fill="#333A47"/>
<rect x="145" y="2" width="5" height="10" rx="2.5" fill="#333A47"/>
<rect x="195" y="2" width="5" height="10" rx="2.5" fill="#333A47"/>
<circle cx="7" cy="7" r="6.5" fill="#0066FF" stroke="#333A47"/>
<rect x="4" y="4" width="1.2" height="6" rx="0.6" fill="white"/>
<rect x="6.39996" y="4" width="1.2" height="6" rx="0.6" fill="white"/>
<rect x="8.79993" y="4" width="1.2" height="6" rx="0.6" fill="white"/>
</svg>
